<?xml version="1.0" encoding="UTF-8" standalone="no"?>
<svg
   version="1.1"
   viewBox="-5 -10 100 100"
   id="svg4"
   sodipodi:docname="bunny-svg.svg"
   inkscape:version="1.4 (e7c3feb1, 2024-10-09)"
   width="100"
   height="100"
   xmlns:inkscape="http://www.inkscape.org/namespaces/inkscape"
   xmlns:sodipodi="http://sodipodi.sourceforge.net/DTD/sodipodi-0.dtd"
   xmlns="http://www.w3.org/2000/svg"
   xmlns:svg="http://www.w3.org/2000/svg">
  <defs
     id="defs4" />
  <sodipodi:namedview
     id="namedview4"
     pagecolor="#ffffff"
     bordercolor="#000000"
     borderopacity="0.25"
     inkscape:showpageshadow="2"
     inkscape:pageopacity="0.0"
     inkscape:pagecheckerboard="0"
     inkscape:deskcolor="#d1d1d1"
     inkscape:zoom="3.8994061"
     inkscape:cx="49.879391"
     inkscape:cy="40.77544"
     inkscape:window-width="1440"
     inkscape:window-height="847"
     inkscape:window-x="0"
     inkscape:window-y="25"
     inkscape:window-maximized="0"
     inkscape:current-layer="svg4" />
  <g
     id="g4"
     transform="translate(-5.00249,-10.008128)"
     style="stroke:#000000;stroke-opacity:1;stroke-width:2.5;stroke-dasharray:none">
    <path
       d="M 88.758,73.906 H 84.09 C 85.2423,58.508 75.4455,50.281 72.809,48.359 c 0.54297,-1.918 1.9883,-7.4062 2.3477,-12.883 0.51953,-7.9258 -1.3633,-14.418 -5.0352,-17.371 -2.25,-1.8047 -5.1133,-2.2773 -8.2812,-1.3594 -9.3359,2.7109 -10.586,21.57 -10.75,26.195 h -1.8945 c -0.05469,-2.3828 -0.30859,-8.6719 -1.4922,-15.176 -0.98047,-5.4062 -4.0234,-9.6914 -7.9336,-11.18 -2.9297,-1.1133 -6.1016,-0.50781 -8.9336,1.7109 -4.1953,3.2812 -4.8984,11 -4.9453,15.309 -0.07422,6.8164 1.3203,13.457 1.8047,15.551 -11.414,8.4062 -11.84,21.637 -11.734,25.18 H 11.247 c -0.55078,0 -1,0.44922 -1,1 0,0.55078 0.44922,1 1,1 h 11.242 c 0.07031,0.74609 0.26562,1.5312 0.64453,2.3477 2.0508,4.4336 7.332,4.6133 10.168,4.7148 l 0.57422,0.02344 c 0.19922,0.0078 0.39844,0.01172 0.59766,0.01172 4.3789,0 9.0664,-2.1211 9.6094,-6.9453 l 12.109,-0.14453 c 0.01172,1.9453 0.66016,3.6289 1.9062,4.8867 1.8047,1.8242 4.7812,2.7461 8.8438,2.7461 0.35156,0 0.71484,-0.0078 1.0859,-0.02344 7.6914,-0.28906 9.7188,-5.0938 9.7188,-7.5898 0,-0.0625 -0.0039,-0.22266 -0.01953,-0.44922 h 11.031 c 0.55078,0 1,-0.44922 1,-1 0,-0.55078 -0.44922,-1 -1,-1 z M 42.11,76.1638 c -0.37109,3.8594 -4.3555,5.418 -8.1484,5.2539 l -0.59375,-0.02344 c -2.5781,-0.08984 -6.8867,-0.23828 -8.4219,-3.5547 -1.6289,-3.5234 1.2344,-5.9102 1.3594,-6.0078 l 0.0039,-0.0039 c 2.2422,-1.8164 4.7812,-2.4883 8.4922,-2.2422 2.5469,0.16797 4.7656,1.1602 6.0938,2.7188 0.94531,1.1133 1.3555,2.4102 1.2148,3.8555 z m 25.84,5.7852 c -3.9883,0.15234 -6.9023,-0.58984 -8.4336,-2.1367 -0.95312,-0.96484 -1.4023,-2.2578 -1.3281,-3.8477 0.03125,-0.35938 0.64844,-6.3164 8.8711,-6.4258 2.9023,-0.03516 5.1875,0.69141 6.6836,2.168 1.9766,1.9531 2,4.6211 2,4.6484 0,0.21875 -0.08984,5.3008 -7.7969,5.5938 z m 7.1992,-11.664 c -1.8945,-1.8672 -4.6055,-2.7891 -8.1172,-2.7461 -7.4453,0.10156 -9.7852,4.4297 -10.516,6.793 l -12.484,0.14844 c -0.20703,-1.2656 -0.74609,-2.4414 -1.6172,-3.4688 -1.6758,-1.9727 -4.4062,-3.2188 -7.4883,-3.4219 -4.2578,-0.28125 -7.2109,0.52344 -9.8789,2.6797 -0.87891,0.70312 -2.0469,2.1562 -2.4531,4.0625 H 17.95 c -0.10938,-3.125 0.17578,-16.047 11.441,-23.941 0.33984,-0.23828 0.49609,-0.66406 0.39453,-1.0664 -0.01953,-0.07813 -1.9844,-7.8945 -1.9023,-15.703 0.07031,-6.7188 1.5938,-11.73 4.1758,-13.754 2.293,-1.7969 4.7109,-2.2852 6.9922,-1.418 3.2109,1.2227 5.832,5.0156 6.6758,9.668 1.4609,8.0391 1.4727,15.742 1.4727,15.82 0,0.26562 0.10547,0.51953 0.29297,0.70703 0.1875,0.1875 0.44141,0.29297 0.70703,0.29297 h 3.8516 c 0.54688,0 0.99219,-0.44141 1,-0.98828 0.0039,-0.22656 0.32812,-22.668 9.332,-25.281 2.5508,-0.73828 4.7266,-0.40625 6.4727,0.99609 3.168,2.5469 4.7734,8.4062 4.293,15.684 -0.41797,6.4062 -2.4492,13.066 -2.4688,13.133 -0.13281,0.4375 0.04687,0.90625 0.43359,1.1484 0.51172,0.3125 12.281,7.7578 10.961,24.281 h -4.7578 c -0.35156,-1.1211 -0.99219,-2.4492 -2.1758,-3.6211 z"
       id="path1"
       style="stroke:#000000;stroke-opacity:1;stroke-width:2.5;stroke-dasharray:none" />
    <path
       d="m 40.422,57.574 c -1.3398,0 -2.4297,1.0898 -2.4297,2.4297 0,1.3399 1.0898,2.4258 2.4297,2.4258 1.3399,0 2.4297,-1.0898 2.4297,-2.4258 0,-1.3398 -1.0898,-2.4297 -2.4297,-2.4297 z"
       id="path2"
       style="stroke:#000000;stroke-width:2.5;stroke-dasharray:none;stroke-opacity:1" />
    <path
       d="m 59.75,57.574 c -1.3398,0 -2.4297,1.0898 -2.4297,2.4297 0,1.3399 1.0898,2.4258 2.4297,2.4258 1.3399,0 2.4258,-1.0898 2.4258,-2.4258 0,-1.3398 -1.0898,-2.4297 -2.4258,-2.4297 z"
       id="path3"
       style="stroke:#000000;stroke-width:2.5;stroke-dasharray:none;stroke-opacity:1" />
  </g>
</svg>
